<svg xmlns="http://www.w3.org/2000/svg" width="2000" height="2000" viewBox="0 0 2000 2000" version="1.1"><path d="M 978 229.597 C 974.975 229.798, 965.300 230.434, 956.500 231.010 C 543.580 258.026, 221.161 622.020, 243.012 1036.500 C 273.847 1621.394, 916.174 1961.677, 1414.500 1657.115 C 1578.437 1556.921, 1714.671 1376.533, 1755.383 1205.750 L 1756.038 1203 1613.994 1203 L 1471.950 1203 1470.992 1205.522 C 1466.219 1218.075, 1447.006 1252.932, 1433.367 1273.783 C 1292.418 1489.258, 1011.716 1564.183, 782.917 1447.402 C 770.828 1441.231, 771.611 1441.351, 760.714 1443.985 C 756.196 1445.077, 742.600 1448.241, 730.500 1451.016 C 718.400 1453.790, 700.850 1457.833, 691.500 1460 C 682.150 1462.167, 664.600 1466.211, 652.500 1468.988 C 640.400 1471.765, 625.775 1475.143, 620 1476.496 C 609.757 1478.894, 593.294 1482.691, 548.500 1492.984 C 536.400 1495.764, 522.543 1498.986, 517.706 1500.142 C 507.545 1502.573, 507.813 1502.655, 509.044 1497.468 C 509.562 1495.285, 513.372 1478.650, 517.511 1460.500 C 524.599 1429.414, 527.270 1417.836, 536.890 1376.500 C 539.066 1367.150, 542.489 1352.300, 544.496 1343.500 C 546.503 1334.700, 550.378 1317.825, 553.108 1306 C 562.111 1267.001, 566.809 1246.555, 567.693 1242.522 C 568.507 1238.806, 568.094 1237.610, 561.423 1224.381 C 452.055 1007.488, 514.999 741.012, 710 595.381 C 963.496 406.064, 1324.425 493.290, 1464.268 777.665 L 1473.284 796 1614.661 796 L 1756.038 796 1755.383 793.250 C 1745.474 751.682, 1714.100 674.825, 1687.728 627.512 C 1559.949 398.271, 1334.505 253.308, 1071 230.947 C 1058.674 229.901, 988.694 228.885, 978 229.597 M 754.500 927.636 C 709.250 937.156, 683.982 989.181, 704.633 1030.309 C 730.682 1082.189, 805.292 1084.338, 832.735 1034 C 862.581 979.254, 815.218 914.861, 754.500 927.636 M 996.500 927.623 C 951.106 937.093, 925.940 989.084, 946.717 1030.475 C 969.099 1075.066, 1027.625 1084.716, 1062.503 1049.566 C 1113.179 998.494, 1066.873 912.943, 996.500 927.623 M 1238.500 927.629 C 1192.718 937.216, 1168.115 988.308, 1188.963 1030.500 C 1211.246 1075.596, 1271.953 1084.763, 1306.119 1048.191 C 1354.407 996.501, 1307.657 913.147, 1238.500 927.629" stroke="none" fill="#ffffff" fill-rule="evenodd"/><path d="M 525.500 36.145 C 265.562 56.598, 59.486 263.484, 40.054 523.500 C 38.587 543.138, 38.590 1453.389, 40.058 1472.050 C 60.626 1733.560, 266.756 1939.459, 527.500 1958.946 C 546.993 1960.402, 1456.007 1960.402, 1475.500 1958.946 C 1736.671 1939.427, 1942.932 1732.987, 1962.971 1471.050 C 1964.397 1452.413, 1964.397 542.587, 1962.971 523.950 C 1942.909 261.710, 1737.290 56.091, 1475.050 36.029 C 1458.347 34.751, 541.791 34.863, 525.500 36.145 M 978 229.597 C 974.975 229.798, 965.300 230.434, 956.500 231.010 C 543.580 258.026, 221.161 622.020, 243.012 1036.500 C 273.847 1621.394, 916.174 1961.677, 1414.500 1657.115 C 1578.437 1556.921, 1714.671 1376.533, 1755.383 1205.750 L 1756.038 1203 1613.994 1203 L 1471.950 1203 1470.992 1205.522 C 1466.219 1218.075, 1447.006 1252.932, 1433.367 1273.783 C 1292.418 1489.258, 1011.716 1564.183, 782.917 1447.402 C 770.828 1441.231, 771.611 1441.351, 760.714 1443.985 C 756.196 1445.077, 742.600 1448.241, 730.500 1451.016 C 718.400 1453.790, 700.850 1457.833, 691.500 1460 C 682.150 1462.167, 664.600 1466.211, 652.500 1468.988 C 640.400 1471.765, 625.775 1475.143, 620 1476.496 C 609.757 1478.894, 593.294 1482.691, 548.500 1492.984 C 536.400 1495.764, 522.543 1498.986, 517.706 1500.142 C 507.545 1502.573, 507.813 1502.655, 509.044 1497.468 C 509.562 1495.285, 513.372 1478.650, 517.511 1460.500 C 524.599 1429.414, 527.270 1417.836, 536.890 1376.500 C 539.066 1367.150, 542.489 1352.300, 544.496 1343.500 C 546.503 1334.700, 550.378 1317.825, 553.108 1306 C 562.111 1267.001, 566.809 1246.555, 567.693 1242.522 C 568.507 1238.806, 568.094 1237.610, 561.423 1224.381 C 452.055 1007.488, 514.999 741.012, 710 595.381 C 963.496 406.064, 1324.425 493.290, 1464.268 777.665 L 1473.284 796 1614.661 796 L 1756.038 796 1755.383 793.250 C 1745.474 751.682, 1714.100 674.825, 1687.728 627.512 C 1559.949 398.271, 1334.505 253.308, 1071 230.947 C 1058.674 229.901, 988.694 228.885, 978 229.597 M 754.500 927.636 C 709.250 937.156, 683.982 989.181, 704.633 1030.309 C 730.682 1082.189, 805.292 1084.338, 832.735 1034 C 862.581 979.254, 815.218 914.861, 754.500 927.636 M 996.500 927.623 C 951.106 937.093, 925.940 989.084, 946.717 1030.475 C 969.099 1075.066, 1027.625 1084.716, 1062.503 1049.566 C 1113.179 998.494, 1066.873 912.943, 996.500 927.623 M 1238.500 927.629 C 1192.718 937.216, 1168.115 988.308, 1188.963 1030.500 C 1211.246 1075.596, 1271.953 1084.763, 1306.119 1048.191 C 1354.407 996.501, 1307.657 913.147, 1238.500 927.629" stroke="none" fill="#247c7c" fill-rule="evenodd"/></svg>